<svg width="119" height="94" viewBox="0 0 119 94" fill="none" xmlns="http://www.w3.org/2000/svg">
<path d="M1.05705 49.0001C-3.94292 45.5004 29.3629 -0.622934 42.0098 0.966917C47.9098 6.38524 51.7192 8.96007 59.6416 12.4625C67.5638 8.96013 71.3732 6.38531 77.2731 0.967047C89.92 -0.622805 123.226 45.5005 118.226 49.0002C100.995 65.076 95.6622 68.939 94.2258 66.5003C93.0402 64.4872 90.7458 57.2808 89.9809 54.826C89.9456 54.7125 89.7758 54.7492 89.7837 54.8678L92.2258 91.5003C92.2258 91.5003 72.3388 93.5043 59.557 93.5003C46.841 93.4962 27.0571 91.5001 27.0571 91.5001L29.4992 54.8677C29.5071 54.7491 29.3373 54.7124 29.3019 54.8259C28.537 57.2806 26.2427 64.4871 25.0571 66.5001C23.6206 68.9389 18.2878 65.0759 1.05705 49.0001Z" fill="#9F577F"/>
<path d="M27.0596 91.5031L29.5017 54.8706L31.8692 5.43516C35.7965 2.40279 39.3591 0.636305 42.0123 0.969847C47.9123 6.38817 51.7217 8.963 59.6441 12.4654C67.5663 8.96306 71.3757 6.38824 77.2756 0.969977C79.9288 0.63644 83.4913 2.40287 87.4185 5.43516L89.7862 54.8708L92.2283 91.5032C92.2283 91.5032 72.3414 93.5073 59.5595 93.5032C46.8435 93.4991 27.0596 91.5031 27.0596 91.5031Z" fill="#FFE8E8"/>
</svg>
