<svg width="119" height="94" viewBox="0 0 119 94" fill="none" xmlns="http://www.w3.org/2000/svg">
<path d="M0.690836 49.0001C-4.30913 45.5004 28.9966 -0.622934 41.6436 0.966917C47.5435 6.38524 51.353 8.96007 59.2754 12.4625C67.1976 8.96013 71.007 6.38531 76.9069 0.967047C89.5538 -0.622805 122.86 45.5005 117.86 49.0002C100.629 65.076 95.296 68.939 93.8596 66.5003C92.6739 64.4872 90.3796 57.2808 89.6147 54.826C89.5794 54.7125 89.4095 54.7492 89.4174 54.8678L91.8596 91.5003C91.8596 91.5003 71.9726 93.5043 59.1908 93.5003C46.4747 93.4962 26.6908 91.5001 26.6908 91.5001L29.133 54.8677C29.1409 54.7491 28.9711 54.7124 28.9357 54.8259C28.1708 57.2806 25.8765 64.4871 24.6908 66.5001C23.2544 68.9389 17.9216 65.0759 0.690836 49.0001Z" fill="#E9C89C"/>
<path d="M59.3599 93.5C58.0718 63.6763 57.873 46.1826 59.1914 12.5M59.1914 12.5C57.35 15.8725 56.3922 21.2362 53.6914 19.5C47.1531 15.2968 44.4039 10.0868 40.5305 1.80172C40.3104 1.33097 40.8665 0.882064 41.2815 1.19486C48.007 6.26449 51.5316 9.06832 59.1914 12.5ZM59.1914 12.5C67.5186 9.4397 70.319 6.37697 76.5076 1.34743C76.9186 1.01342 77.4758 1.45629 77.2345 1.92771C73.2219 9.76677 67.5388 18.1144 65.6914 19.5C62.5737 21.8382 61.3326 15.4605 59.1914 12.5ZM36.1914 38V49C36.1914 49.2761 36.4153 49.5 36.6914 49.5H50.1914C50.4675 49.5 50.6914 49.2761 50.6914 49V38M36.1914 38V33.5C36.1914 33.2239 36.4153 33 36.6914 33H50.1914C50.4675 33 50.6914 33.2239 50.6914 33.5V38M36.1914 38L43.623 38.9909C43.6684 38.9969 43.7144 38.9967 43.7598 38.9902L50.6914 38M69.6914 38V49C69.6914 49.2761 69.9153 49.5 70.1914 49.5H83.6914C83.9675 49.5 84.1914 49.2761 84.1914 49V33.5C84.1914 33.2239 83.9675 33 83.6914 33H70.1914C69.9153 33 69.6914 33.2239 69.6914 33.5V38ZM69.6914 38L76.6231 38.9902C76.6684 38.9967 76.7144 38.9969 76.7598 38.9909L84.1914 38" stroke="#8A8031"/>
<path d="M63.1914 66.75C64.1579 66.75 64.9414 67.5335 64.9414 68.5C64.9414 69.4665 64.1579 70.25 63.1914 70.25C62.2249 70.25 61.4414 69.4665 61.4414 68.5C61.4414 67.5335 62.2249 66.75 63.1914 66.75ZM63.1914 47.75C64.1579 47.75 64.9414 48.5335 64.9414 49.5C64.9414 50.4665 64.1579 51.25 63.1914 51.25C62.2249 51.25 61.4414 50.4665 61.4414 49.5C61.4414 48.5335 62.2249 47.75 63.1914 47.75ZM63.1914 28.75C64.1579 28.75 64.9414 29.5335 64.9414 30.5C64.9414 31.4665 64.1579 32.25 63.1914 32.25C62.2249 32.25 61.4414 31.4665 61.4414 30.5C61.4414 29.5335 62.2249 28.75 63.1914 28.75Z" fill="#7F7730" stroke="#8A8031" stroke-width="0.5"/>
</svg>
