<svg width="119" height="94" viewBox="0 0 119 94" fill="none" xmlns="http://www.w3.org/2000/svg">
<path d="M0.507243 49.0001C-4.49272 45.5004 28.8131 -0.622934 41.46 0.966917C47.36 6.38524 51.1694 8.96007 59.0918 12.4625C67.014 8.96013 70.8234 6.38531 76.7233 0.967047C89.3702 -0.622805 122.676 45.5005 117.676 49.0002C100.445 65.076 95.1124 68.939 93.676 66.5003C92.4903 64.4872 90.196 57.2808 89.4311 54.826C89.3958 54.7125 89.226 54.7492 89.2339 54.8678L91.676 91.5003C91.676 91.5003 71.789 93.5043 59.0072 93.5003C46.2912 93.4962 26.5072 91.5001 26.5072 91.5001L28.9494 54.8677C28.9573 54.7491 28.7875 54.7124 28.7521 54.8259C27.9872 57.2806 25.6929 64.4871 24.5072 66.5001C23.0708 68.9389 17.738 65.0759 0.507243 49.0001Z" fill="#8A8031"/>
<path d="M59.1763 93.5C57.8882 63.6763 57.6894 46.1826 59.0078 12.5M59.0078 12.5C57.1664 15.8725 56.2086 21.2362 53.5078 19.5C46.9695 15.2968 44.2203 10.0868 40.3469 1.80172C40.1268 1.33097 40.6829 0.882064 41.0979 1.19486C47.8234 6.26449 51.348 9.06832 59.0078 12.5ZM59.0078 12.5C67.335 9.4397 70.1354 6.37697 76.324 1.34743C76.735 1.01342 77.2922 1.45629 77.0509 1.92771C73.0383 9.76677 67.3552 18.1144 65.5078 19.5C62.3902 21.8382 61.149 15.4605 59.0078 12.5ZM36.0078 38V49C36.0078 49.2761 36.2317 49.5 36.5078 49.5H50.0078C50.284 49.5 50.5078 49.2761 50.5078 49V38M36.0078 38V33.5C36.0078 33.2239 36.2317 33 36.5078 33H50.0078C50.284 33 50.5078 33.2239 50.5078 33.5V38M36.0078 38L43.4394 38.9909C43.4848 38.9969 43.5308 38.9967 43.5762 38.9902L50.5078 38M69.5078 38V49C69.5078 49.2761 69.7317 49.5 70.0078 49.5H83.5078C83.784 49.5 84.0078 49.2761 84.0078 49V33.5C84.0078 33.2239 83.784 33 83.5078 33H70.0078C69.7317 33 69.5078 33.2239 69.5078 33.5V38ZM69.5078 38L76.4395 38.9902C76.4848 38.9967 76.5308 38.9969 76.5763 38.9909L84.0078 38" stroke="#5B481B"/>
<path d="M63.0078 66.75C63.9743 66.75 64.7578 67.5335 64.7578 68.5C64.7578 69.4665 63.9743 70.25 63.0078 70.25C62.0413 70.25 61.2578 69.4665 61.2578 68.5C61.2578 67.5335 62.0413 66.75 63.0078 66.75ZM63.0078 47.75C63.9743 47.75 64.7578 48.5335 64.7578 49.5C64.7578 50.4665 63.9743 51.25 63.0078 51.25C62.0413 51.25 61.2578 50.4665 61.2578 49.5C61.2578 48.5335 62.0413 47.75 63.0078 47.75ZM63.0078 28.75C63.9743 28.75 64.7578 29.5335 64.7578 30.5C64.7578 31.4665 63.9743 32.25 63.0078 32.25C62.0413 32.25 61.2578 31.4665 61.2578 30.5C61.2578 29.5335 62.0413 28.75 63.0078 28.75Z" fill="#5E4C20" stroke="#5B481B" stroke-width="0.5"/>
</svg>
