<svg width="119" height="94" viewBox="0 0 119 94" fill="none" xmlns="http://www.w3.org/2000/svg">
<path d="M0.873453 49.0001C-4.12651 45.5004 29.1793 -0.622934 41.8262 0.966917C47.7262 6.38524 51.5356 8.96007 59.458 12.4625C67.3802 8.96013 71.1896 6.38531 77.0895 0.967047C89.7364 -0.622805 123.042 45.5005 118.042 49.0002C100.811 65.076 95.4786 68.939 94.0422 66.5003C92.8566 64.4872 90.5623 57.2808 89.7974 54.826C89.762 54.7125 89.5922 54.7492 89.6001 54.8678L92.0422 91.5003C92.0422 91.5003 72.1552 93.5043 59.3734 93.5003C46.6574 93.4962 26.8735 91.5001 26.8735 91.5001L29.3156 54.8677C29.3235 54.7491 29.1537 54.7124 29.1183 54.8259C28.3534 57.2806 26.0591 64.4871 24.8735 66.5001C23.437 68.9389 18.1042 65.0759 0.873453 49.0001Z" fill="#415691"/>
</svg>
