<svg width="71" height="53" viewBox="0 0 71 53" fill="none" xmlns="http://www.w3.org/2000/svg">
<path d="M34.7354 52.9963L0.235352 49.9963L2.67982 5.99634L3.06872 -0.00366211L35.3066 0.495618L67.5198 -0.00328064L67.9087 5.99672L70.3531 49.9967L35.8531 52.9967L35.2354 28.4963L34.7354 52.9963Z" fill="#27355E"/>
<path d="M19.5 5C19.5 5 20.3036 15.1445 16.5 19.5C12.802 23.7346 3 24.5 3 24.5" stroke="#93A0AF" stroke-width="0.5"/>
<path d="M51.0713 5C51.0713 5 50.2677 15.1445 54.0713 19.5C57.7693 23.7346 67.5713 24.5 67.5713 24.5" stroke="#93A0AF" stroke-width="0.5"/>
<path d="M35.2359 6.99736C22.5162 6.99869 2.5625 5.99634 2.5625 5.99634L2.95139 -0.00366211L35.1892 0.495618L67.4024 -0.00328064L67.7913 5.99672C67.7913 5.99672 47.9556 6.99602 35.2359 6.99736Z" fill="#041221"/>
<circle cx="35.5" cy="3.5" r="2.5" fill="#C88E34"/>
<circle cx="35.5" cy="3.5" r="1.25" fill="#C88E34" stroke="#7D5107" stroke-width="0.5"/>
</svg>
