<svg width="71" height="53" viewBox="0 0 71 53" fill="none" xmlns="http://www.w3.org/2000/svg">
<path d="M34.8535 52.9963L0.353516 49.9963L2.79799 5.99634L3.18688 -0.00366211L35.4247 0.495618L67.6379 -0.00328064L68.0268 5.99672L70.4713 49.9967L35.9713 52.9967L35.3535 28.4963L34.8535 52.9963Z" fill="#AEAEB2"/>
<mask id="mask0_186_1758" style="mask-type:alpha" maskUnits="userSpaceOnUse" x="-2" y="-1" width="17" height="61">
<rect x="1.58203" y="-1" width="13" height="60" transform="rotate(3.42251 1.58203 -1)" fill="#D9D9D9"/>
</mask>
<g mask="url(#mask0_186_1758)">
<mask id="mask1_186_1758" style="mask-type:alpha" maskUnits="userSpaceOnUse" x="0" y="-1" width="71" height="54">
<path d="M34.8535 52.9963L0.353516 49.9963L2.79799 5.99634L3.18688 -0.00366211L35.4247 0.495618L67.6379 -0.00328064L68.0268 5.99672L70.4713 49.9967L35.9713 52.9967L35.3535 28.4963L34.8535 52.9963Z" fill="#AEAEB2"/>
</mask>
<g mask="url(#mask1_186_1758)">
<rect x="1.80273" y="-3.33459" width="13" height="60" transform="rotate(3.42251 1.80273 -3.33459)" fill="#D9D9D9"/>
<rect x="1.80273" y="-3.33459" width="13" height="60" transform="rotate(3.42251 1.80273 -3.33459)" fill="#D9D9D9"/>
<rect x="-3" y="46.8627" width="23" height="6" transform="rotate(-31.0489 -3 46.8627)" fill="#FFE182"/>
<rect x="-3" y="35.8627" width="23" height="6" transform="rotate(-31.0489 -3 35.8627)" fill="#91D3E6"/>
<rect x="-4" y="25.8627" width="23" height="6" transform="rotate(-31.0489 -4 25.8627)" fill="#EE6A6A"/>
</g>
</g>
<mask id="mask2_186_1758" style="mask-type:alpha" maskUnits="userSpaceOnUse" x="56" y="-1" width="17" height="61">
<rect width="13" height="60" transform="matrix(-0.998216 0.0596985 0.0596985 0.998216 69.2305 -1)" fill="#D9D9D9"/>
</mask>
<g mask="url(#mask2_186_1758)">
<mask id="mask3_186_1758" style="mask-type:alpha" maskUnits="userSpaceOnUse" x="0" y="-1" width="71" height="54">
<path d="M35.959 52.9963L70.459 49.9963L68.0145 5.99634L67.6256 -0.00366211L35.3878 0.495618L3.17457 -0.00328064L2.78568 5.99672L0.341202 49.9967L34.8412 52.9967L35.459 28.4963L35.959 52.9963Z" fill="#AEAEB2"/>
</mask>
<g mask="url(#mask3_186_1758)">
<rect width="13" height="60" transform="matrix(-0.998216 0.0596985 0.0596985 0.998216 69.0098 -3.33459)" fill="#D9D9D9"/>
<rect width="13" height="60" transform="matrix(-0.998216 0.0596985 0.0596985 0.998216 69.0098 -3.33459)" fill="#D9D9D9"/>
<rect width="23" height="6" transform="matrix(-0.856728 -0.515769 -0.515769 0.856728 73.8125 46.8627)" fill="#FFE182"/>
<rect width="23" height="6" transform="matrix(-0.856728 -0.515769 -0.515769 0.856728 73.8125 35.8627)" fill="#91D3E6"/>
<rect width="23" height="6" transform="matrix(-0.856728 -0.515769 -0.515769 0.856728 74.8125 25.8627)" fill="#EE6A6A"/>
</g>
</g>
<path d="M35.4712 6.99736C22.7515 6.99869 2.79785 5.99634 2.79785 5.99634L3.18675 -0.00366211L35.4246 0.495618L67.6378 -0.00328064L68.0267 5.99672C68.0267 5.99672 48.1909 6.99602 35.4712 6.99736Z" fill="#616164"/>
<path d="M33 3V18" stroke="black"/>
<path d="M32 20C32 20.5523 32.4477 21 33 21C33.5523 21 34 20.5523 34 20H32ZM33 16H32V20H33H34V16H33Z" fill="black"/>
<path d="M35 15C35 15.5523 35.4477 16 36 16C36.5523 16 37 15.5523 37 15H35ZM36 11H35V15H36H37V11H36Z" fill="black"/>
<path d="M36 3V12" stroke="black"/>
</svg>
