<svg width="71" height="54" viewBox="0 0 71 54" fill="none" xmlns="http://www.w3.org/2000/svg">
<path d="M34.6182 53.9963L0.118164 50.9963L2.56264 6.99634L2.95153 0.996338L35.1894 1.49562L67.4026 0.996719L67.7915 6.99672L70.2359 50.9967L35.7359 53.9967L35.1182 29.4963L34.6182 53.9963Z" fill="#E9C89C"/>
<path d="M35.2359 7.99736C22.5162 7.99869 2.5625 6.99634 2.5625 6.99634L2.95139 0.996338L35.1892 1.49562L67.4024 0.996719L67.7913 6.99672C67.7913 6.99672 47.9556 7.99602 35.2359 7.99736Z" fill="#8A8031"/>
<path d="M39.1182 1.49634H30.6182C30.342 1.49634 30.1182 1.7202 30.1182 1.99634V7.49634C30.1182 7.77248 30.342 7.99634 30.6182 7.99634H39.1182C39.3943 7.99634 39.6182 7.77248 39.6182 7.49634V1.99634C39.6182 1.7202 39.3943 1.49634 39.1182 1.49634Z" stroke="#523D32" stroke-width="1.2" stroke-linecap="round"/>
</svg>
