<svg width="71" height="54" viewBox="0 0 71 54" fill="none" xmlns="http://www.w3.org/2000/svg">
<path d="M34.5 53.9963L0 50.9963L2.44447 6.99634L2.83337 0.996338L35.0712 1.49562L67.2844 0.996719L67.6733 6.99672L70.1178 50.9967L35.6178 53.9967L35 29.4963L34.5 53.9963Z" fill="#8A8031"/>
<path d="M35.1177 7.99736C22.398 7.99869 2.44434 6.99634 2.44434 6.99634L2.83323 0.996338L35.0711 1.49562L67.2843 0.996719L67.6732 6.99672C67.6732 6.99672 47.8374 7.99602 35.1177 7.99736Z" fill="#4C3D18"/>
<path d="M39 1.49634H30.5C30.2239 1.49634 30 1.7202 30 1.99634V7.49634C30 7.77248 30.2239 7.99634 30.5 7.99634H39C39.2761 7.99634 39.5 7.77248 39.5 7.49634V1.99634C39.5 1.7202 39.2761 1.49634 39 1.49634Z" stroke="#DEAB65" stroke-width="1.2" stroke-linecap="round"/>
</svg>
