<svg width="113" height="15" viewBox="0 0 113 15" fill="none" xmlns="http://www.w3.org/2000/svg">
<path d="M26.1032 -0.0032959C26.1032 5.71058 25.8333 9.20683 26.6569 10.9996H52.4274V14.9996H17.4274V14.9967H2.83071C-4.63693 14.9967 4.6667 2.35627 26.1032 -0.0032959Z" fill="#439066"/>
<path d="M86.2523 0C86.2523 5.71091 86.5215 9.20635 85.6996 11H59.9281V15H109.525C116.992 15 107.689 2.35956 86.2523 0Z" fill="#439066"/>
<mask id="mask0_186_1935" style="mask-type:alpha" maskUnits="userSpaceOnUse" x="0" y="-1" width="53" height="16">
<path d="M26.1039 -0.0032959C26.1039 5.71072 25.8339 9.20687 26.6576 10.9996H52.4281V14.9996H17.4281V14.9967H2.83042C-4.63688 14.9965 4.66754 2.35623 26.1039 -0.0032959Z" fill="#EE6A6A"/>
</mask>
<g mask="url(#mask0_186_1935)">
<path d="M4.44238 4.56604C4.44487 4.56681 4.44846 4.56783 4.45215 4.56897C4.45955 4.57127 4.46951 4.57495 4.48145 4.57874C4.50562 4.58639 4.53884 4.59735 4.58008 4.61096C4.66298 4.63833 4.77935 4.67722 4.91992 4.72815C5.19992 4.82961 5.58586 4.98009 6.00879 5.17444C6.78906 5.53304 7.9498 6.15418 8.6748 7.06702C9.07296 7.56846 9.38625 8.21847 9.57715 8.65295C9.67993 8.88691 9.76352 9.0958 9.82129 9.2467C9.85022 9.32229 9.87347 9.38478 9.88965 9.42932C9.89766 9.45137 9.90356 9.46993 9.9082 9.48303C9.91047 9.48943 9.91263 9.49554 9.91406 9.49963C9.91467 9.50136 9.91554 9.50325 9.91602 9.50452L9.91699 9.50647V9.50745L9.95996 9.65491C10.1356 10.3946 9.72574 11.1618 8.99219 11.4166C8.25863 11.6713 7.46139 11.3235 7.14062 10.6344L7.08301 10.4918C7.08261 10.4906 7.08189 10.4883 7.08105 10.486C7.07873 10.4794 7.07463 10.4683 7.06934 10.4537C7.05844 10.4237 7.04163 10.3777 7.01953 10.3199C6.97469 10.2028 6.90917 10.039 6.83008 9.85901C6.65685 9.46482 6.46983 9.11439 6.3252 8.93225C6.07103 8.61251 5.48134 8.23302 4.75684 7.90002C4.42758 7.74871 4.12155 7.6303 3.89844 7.54944C3.78765 7.50929 3.69832 7.47896 3.63965 7.45959C3.61084 7.45009 3.58929 7.44324 3.57617 7.43909C3.56966 7.43702 3.56463 7.43487 3.5625 7.4342L4.4375 4.56506H4.43945C4.44029 4.56532 4.44132 4.56571 4.44238 4.56604ZM8.44238 1.56604C8.44487 1.56681 8.44846 1.56783 8.45215 1.56897C8.45955 1.57127 8.46951 1.57496 8.48145 1.57874C8.50562 1.58639 8.53884 1.59735 8.58008 1.61096C8.66298 1.63833 8.77935 1.67722 8.91992 1.72815C9.19992 1.82961 9.58586 1.98009 10.0088 2.17444C10.7891 2.53304 11.9498 3.15418 12.6748 4.06702C13.073 4.56846 13.3862 5.21847 13.5771 5.65295C13.6799 5.88691 13.7635 6.0958 13.8213 6.2467C13.8502 6.32229 13.8735 6.38478 13.8896 6.42932C13.8977 6.45137 13.9036 6.46993 13.9082 6.48303C13.9105 6.48943 13.9126 6.49554 13.9141 6.49963C13.9147 6.50136 13.9155 6.50325 13.916 6.50452L13.917 6.50647V6.50745L13.96 6.65491C14.1356 7.39459 13.7257 8.16177 12.9922 8.41663C12.2586 8.6713 11.4614 8.32349 11.1406 7.6344L11.083 7.49182C11.0826 7.49064 11.0819 7.48832 11.0811 7.48596C11.0787 7.47942 11.0746 7.46831 11.0693 7.45374C11.0584 7.42374 11.0416 7.37769 11.0195 7.31995C10.9747 7.20282 10.9092 7.03903 10.8301 6.85901C10.6568 6.46482 10.4698 6.11439 10.3252 5.93225C10.071 5.61251 9.48134 5.23302 8.75684 4.90002C8.42758 4.74871 8.12155 4.6303 7.89844 4.54944C7.78765 4.50929 7.69832 4.47896 7.63965 4.45959C7.61084 4.45009 7.58929 4.44324 7.57617 4.43909C7.56966 4.43702 7.56463 4.43487 7.5625 4.4342L8.4375 1.56506H8.43945C8.44029 1.56532 8.44132 1.56571 8.44238 1.56604Z" fill="#FFE286"/>
</g>
<mask id="mask1_186_1935" style="mask-type:alpha" maskUnits="userSpaceOnUse" x="60" y="0" width="53" height="16">
<path d="M86.3246 0C86.3246 5.71388 86.5944 9.21012 85.7709 11.0029H60.0003V15.0029H95.0003V15H109.597C117.065 15 107.761 2.35956 86.3246 0Z" fill="#EE6A6A"/>
</mask>
<g mask="url(#mask1_186_1935)">
<path d="M107.985 4.56934C107.983 4.5701 107.979 4.57112 107.976 4.57227C107.968 4.57456 107.958 4.57825 107.946 4.58203C107.922 4.58968 107.889 4.60065 107.848 4.61426C107.765 4.64162 107.648 4.68051 107.508 4.73145C107.228 4.83291 106.842 4.98338 106.419 5.17773C105.639 5.53634 104.478 6.15748 103.753 7.07031C103.355 7.57176 103.041 8.22177 102.851 8.65625C102.748 8.89021 102.664 9.0991 102.606 9.25C102.578 9.32558 102.554 9.38807 102.538 9.43262C102.53 9.45467 102.524 9.47322 102.52 9.48633C102.517 9.49273 102.515 9.49884 102.514 9.50293C102.513 9.50466 102.512 9.50654 102.512 9.50781L102.511 9.50977V9.51074L102.468 9.6582C102.292 10.3979 102.702 11.1651 103.436 11.4199C104.169 11.6746 104.966 11.3268 105.287 10.6377L105.345 10.4951C105.345 10.4939 105.346 10.4916 105.347 10.4893C105.349 10.4827 105.353 10.4716 105.358 10.457C105.369 10.427 105.386 10.381 105.408 10.3232C105.453 10.2061 105.519 10.0423 105.598 9.8623C105.771 9.46812 105.958 9.11768 106.103 8.93555C106.357 8.61581 106.946 8.23632 107.671 7.90332C108 7.752 108.306 7.63359 108.529 7.55273C108.64 7.51259 108.729 7.48226 108.788 7.46289C108.817 7.45338 108.838 7.44654 108.852 7.44238C108.858 7.44031 108.863 7.43816 108.865 7.4375L107.99 4.56836H107.988C107.987 4.56861 107.986 4.56901 107.985 4.56934ZM103.985 1.56934C103.983 1.5701 103.979 1.57112 103.976 1.57227C103.968 1.57456 103.958 1.57825 103.946 1.58203C103.922 1.58968 103.889 1.60065 103.848 1.61426C103.765 1.64162 103.648 1.68051 103.508 1.73145C103.228 1.83291 102.842 1.98338 102.419 2.17773C101.639 2.53634 100.478 3.15748 99.7529 4.07031C99.3548 4.57176 99.0415 5.22177 98.8506 5.65625C98.7478 5.89021 98.6642 6.0991 98.6064 6.25C98.5775 6.32558 98.5543 6.38807 98.5381 6.43262C98.5301 6.45467 98.5242 6.47322 98.5195 6.48633C98.5173 6.49273 98.5151 6.49884 98.5137 6.50293C98.5131 6.50466 98.5122 6.50654 98.5117 6.50781L98.5107 6.50977V6.51074L98.4678 6.6582C98.2922 7.39789 98.702 8.16506 99.4355 8.41992C100.169 8.6746 100.966 8.32679 101.287 7.6377L101.345 7.49512C101.345 7.49394 101.346 7.49161 101.347 7.48926C101.349 7.48272 101.353 7.4716 101.358 7.45703C101.369 7.42703 101.386 7.38098 101.408 7.32324C101.453 7.20611 101.519 7.04233 101.598 6.8623C101.771 6.46812 101.958 6.11768 102.103 5.93555C102.357 5.61581 102.946 5.23632 103.671 4.90332C104 4.752 104.306 4.63359 104.529 4.55273C104.64 4.51259 104.729 4.48226 104.788 4.46289C104.817 4.45338 104.838 4.44654 104.852 4.44238C104.858 4.44031 104.863 4.43816 104.865 4.4375L103.99 1.56836H103.988C103.987 1.56861 103.986 1.56901 103.985 1.56934Z" fill="#FFE286"/>
</g>
</svg>
