<svg width="113" height="17" viewBox="0 0 113 17" fill="none" xmlns="http://www.w3.org/2000/svg">
<path d="M52.5519 16.9965C52.5519 16.9965 10.726 16.9965 3.25839 16.9965C-4.20926 16.9965 5.09484 4.35626 26.5313 1.99671C37.0452 3.29302 42.8513 3.18569 53.1124 1.9967L52.5519 16.9965Z" fill="#91D3E6"/>
<path d="M60.2977 16.9965C60.2977 16.9965 102.124 16.9965 109.591 16.9965C117.059 16.9965 107.755 4.35626 86.3183 1.99671C75.8044 3.29302 69.9983 3.18569 59.7372 1.9967L60.2977 16.9965Z" fill="#91D3E6"/>
<path d="M52.5519 16.9965C52.5519 16.9965 10.726 16.9965 3.25839 16.9965C-4.20926 16.9965 5.09484 4.35626 26.5313 1.99671C37.0452 3.29302 42.8513 3.18569 53.1124 1.9967L52.5519 16.9965Z" fill="#91D3E6"/>
<path d="M60.2977 16.9965C60.2977 16.9965 102.124 16.9965 109.591 16.9965C117.059 16.9965 107.755 4.35626 86.3183 1.99671C75.8044 3.29302 69.9983 3.18569 59.7372 1.9967L60.2977 16.9965Z" fill="#91D3E6"/>
<path d="M16.0488 1.46387C16.8917 0.621304 17.9467 0.600151 18.7715 1.00879C19.5643 1.4018 20.1983 2.21721 20.2549 3.12793C20.3321 4.37681 19.4158 5.02559 18.7217 5.56543C18.2585 5.92571 17.6808 6.08453 17.1221 6.14258C16.5594 6.20101 15.9738 6.16154 15.4541 6.08789C15.1037 6.03822 14.7759 5.97115 14.4951 5.90527C14.5851 6.15001 14.6892 6.43757 14.7939 6.75195C15.1079 7.69466 15.4581 8.91358 15.5576 9.9209C15.6122 10.474 15.6116 11.17 15.5986 11.7139C15.5921 11.9886 15.5824 12.2314 15.5742 12.4043L15.5605 12.6641C15.5602 12.6701 15.5598 12.6754 15.5596 12.6787V12.6836L14.5615 12.6211C14.5616 12.6205 14.5615 12.6185 14.5615 12.6172C14.5617 12.6144 14.5622 12.6098 14.5625 12.6045C14.5632 12.5929 14.5642 12.5751 14.5654 12.5527C14.568 12.5072 14.5713 12.4397 14.5752 12.3564C14.5831 12.1895 14.5923 11.9556 14.5986 11.6904C14.6114 11.1539 14.6108 10.5079 14.5625 10.0186C14.4745 9.12837 14.1546 7.99864 13.8447 7.06836C13.7533 6.79401 13.6625 6.54039 13.582 6.31934C13.3137 6.67462 12.9658 7.11481 12.5801 7.53906C12.1507 8.01138 11.655 8.48946 11.1602 8.80762C10.6969 9.10541 10.0632 9.37052 9.47168 9.0752C9.36396 9.02134 9.30638 9.01935 9.28809 9.02051C9.2759 9.02138 9.26259 9.02451 9.23926 9.04395C9.16989 9.10194 9.07854 9.25247 9.00195 9.52051C8.93055 9.77066 8.89263 10.0502 8.87305 10.2754C8.86346 10.3858 8.85783 10.4799 8.85547 10.5449C8.8543 10.5771 8.85379 10.6028 8.85352 10.6191V10.6406H7.85352V10.6025C7.85389 10.5802 7.85503 10.5479 7.85645 10.5088C7.85931 10.43 7.86468 10.3186 7.87598 10.1885C7.89829 9.93183 7.94393 9.58162 8.04004 9.24512C8.13106 8.92662 8.29178 8.53192 8.59961 8.27539C8.76486 8.13776 8.97234 8.0409 9.2168 8.02344C9.45585 8.0065 9.6929 8.06764 9.91895 8.18066C9.99844 8.21991 10.2036 8.23386 10.6191 7.9668C11.0045 7.71902 11.4319 7.31606 11.8408 6.86621C12.0712 6.61274 12.2881 6.35057 12.4824 6.10645C12.3237 6.13692 12.1569 6.16695 11.9844 6.19141C11.4648 6.26504 10.879 6.30448 10.3164 6.24609C9.7578 6.18806 9.17995 6.02902 8.7168 5.66895C8.02275 5.12914 7.10655 4.48017 7.18359 3.23145C7.24002 2.32058 7.87404 1.50537 8.66699 1.1123C9.49181 0.70361 10.5467 0.724689 11.3896 1.56738C12.0851 2.26279 12.7732 3.12326 13.2812 3.80078C13.4311 4.00065 13.5654 4.18662 13.6816 4.34863C13.8132 4.16384 13.9742 3.94129 14.1572 3.69727C14.6654 3.01966 15.3533 2.15928 16.0488 1.46387ZM10.6826 2.27441C10.1839 1.77583 9.60508 1.76264 9.11035 2.00781C8.58377 2.26893 8.21243 2.79596 8.18164 3.29297C8.14238 3.92891 8.53432 4.2602 9.33105 4.87988C9.59146 5.08215 9.96303 5.2045 10.4199 5.25195C10.873 5.29895 11.3709 5.26817 11.8438 5.20117C12.2431 5.14456 12.6135 5.06109 12.9082 4.98633C12.7872 4.817 12.6429 4.61699 12.4805 4.40039C11.9828 3.73677 11.3285 2.92022 10.6826 2.27441ZM18.3281 1.9043C17.8334 1.65918 17.2545 1.67244 16.7559 2.1709C16.1099 2.81671 15.4558 3.63316 14.958 4.29688C14.7955 4.51355 14.6513 4.71342 14.5303 4.88281C14.825 4.95758 15.1953 5.04104 15.5947 5.09766C16.0677 5.16467 16.5654 5.19548 17.0186 5.14844C17.4757 5.10096 17.847 4.97881 18.1074 4.77637C18.9042 4.15662 19.2962 3.82557 19.2568 3.18945C19.2259 2.69255 18.8546 2.16535 18.3281 1.9043Z" fill="#FFCEAD"/>
<path d="M96.638 0.714086C95.7951 -0.128476 94.7401 -0.14963 93.9154 0.259008C93.1225 0.65202 92.4885 1.46743 92.432 2.37815C92.3548 3.62702 93.2711 4.27581 93.9652 4.81565C94.4284 5.17593 95.006 5.33475 95.5648 5.3928C96.1275 5.45123 96.7131 5.41176 97.2327 5.33811C97.5832 5.28844 97.911 5.22137 98.1917 5.15549C98.1018 5.40023 97.9976 5.68779 97.8929 6.00217C97.5789 6.94488 97.2287 8.1638 97.1292 9.17112C97.0747 9.72421 97.0753 10.4202 97.0882 10.9641C97.0948 11.2388 97.1045 11.4816 97.1126 11.6545L97.1263 11.9143C97.1267 11.9203 97.1271 11.9257 97.1273 11.9289V11.9338L98.1253 11.8713C98.1253 11.8707 98.1254 11.8687 98.1253 11.8674C98.1252 11.8646 98.1247 11.8601 98.1244 11.8547C98.1237 11.8432 98.1227 11.8254 98.1214 11.803C98.1189 11.7574 98.1156 11.6899 98.1117 11.6067C98.1038 11.4397 98.0945 11.2058 98.0882 10.9406C98.0754 10.4041 98.0761 9.75813 98.1244 9.26877C98.2123 8.37859 98.5323 7.24886 98.8421 6.31858C98.9335 6.04423 99.0244 5.79061 99.1048 5.56956C99.3732 5.92484 99.7211 6.36503 100.107 6.78928C100.536 7.2616 101.032 7.73968 101.527 8.05784C101.99 8.35563 102.624 8.62074 103.215 8.32541C103.323 8.27156 103.38 8.26957 103.399 8.27073C103.411 8.2716 103.424 8.27473 103.448 8.29416C103.517 8.35216 103.608 8.50269 103.685 8.77073C103.756 9.02088 103.794 9.30042 103.814 9.52561C103.823 9.63605 103.829 9.73009 103.831 9.79514C103.833 9.82732 103.833 9.85299 103.833 9.86936V9.89084H104.833V9.85276C104.833 9.83045 104.832 9.79812 104.83 9.75901C104.828 9.6802 104.822 9.56877 104.811 9.4387C104.789 9.18205 104.743 8.83184 104.647 8.49534C104.556 8.17684 104.395 7.78214 104.087 7.52561C103.922 7.38798 103.715 7.29112 103.47 7.27366C103.231 7.25672 102.994 7.31786 102.768 7.43088C102.688 7.47013 102.483 7.48408 102.068 7.21702C101.682 6.96924 101.255 6.56628 100.846 6.11643C100.616 5.86296 100.399 5.60079 100.204 5.35666C100.363 5.38714 100.53 5.41717 100.702 5.44163C101.222 5.51526 101.808 5.5547 102.37 5.49631C102.929 5.43828 103.507 5.27924 103.97 4.91916C104.664 4.37936 105.58 3.73039 105.503 2.48166C105.447 1.5708 104.813 0.755586 104.02 0.362524C103.195 -0.0461706 102.14 -0.0250922 101.297 0.817602C100.602 1.51301 99.9137 2.37348 99.4056 3.051C99.2557 3.25087 99.1215 3.43684 99.0052 3.59885C98.8737 3.41406 98.7126 3.19151 98.5296 2.94748C98.0215 2.26988 97.3336 1.4095 96.638 0.714086ZM102.004 1.52463C102.503 1.02605 103.082 1.01286 103.576 1.25803C104.103 1.51915 104.474 2.04618 104.505 2.54319C104.544 3.17913 104.153 3.51042 103.356 4.1301C103.095 4.33237 102.724 4.45471 102.267 4.50217C101.814 4.54917 101.316 4.51839 100.843 4.45139C100.444 4.39478 100.073 4.31131 99.7786 4.23655C99.8997 4.06722 100.044 3.86721 100.206 3.65061C100.704 2.98699 101.358 2.17044 102.004 1.52463ZM94.3587 1.15452C94.8534 0.909402 95.4323 0.922662 95.931 1.42112C96.577 2.06693 97.2311 2.88338 97.7288 3.54709C97.8913 3.76377 98.0355 3.96364 98.1566 4.13303C97.8618 4.2078 97.4915 4.29126 97.0921 4.34788C96.6191 4.41489 96.1214 4.4457 95.6683 4.39866C95.2112 4.35118 94.8399 4.22903 94.5794 4.02659C93.7826 3.40684 93.3906 3.07579 93.43 2.43967C93.461 1.94277 93.8323 1.41557 94.3587 1.15452Z" fill="#FFCEAD"/>
<path d="M44.4277 16.5967C44.4277 16.5967 45.3109 12.4718 47.3368 10.9967C48.9858 9.79603 52.4277 9.59668 52.4277 9.59668" stroke="#FFD1B2" stroke-width="0.5" stroke-dasharray="1 1"/>
<path d="M68.4277 16.5967C68.4277 16.5967 67.5446 12.4718 65.5186 10.9967C63.8696 9.79603 60.4277 9.59668 60.4277 9.59668" stroke="#FFD1B2" stroke-width="0.5" stroke-dasharray="1 1"/>
</svg>
