<svg width="112" height="16" viewBox="0 0 112 16" fill="none" xmlns="http://www.w3.org/2000/svg">
<path d="M52.2687 14.9965C52.2687 14.9965 10.4428 14.9965 2.97518 14.9965C-4.49247 14.9965 4.81163 2.35626 26.2481 -0.00328827C36.762 1.29302 42.5681 1.18569 52.8292 -0.0032959L52.2687 14.9965Z" fill="#523D32"/>
<path d="M60.0145 14.9965C60.0145 14.9965 101.84 14.9965 109.308 14.9965C116.776 14.9965 107.472 2.35626 86.0351 -0.00328827C75.5212 1.29302 69.7151 1.18569 59.454 -0.0032959L60.0145 14.9965Z" fill="#523D32"/>
<path d="M12.5 4C12.5 4 15.7354 6.6192 16.5 9C17.1568 11.045 16.5 14.5 16.5 14.5" stroke="#FFCEAD" stroke-width="0.5" stroke-dasharray="1 1"/>
<path d="M99.292 4C99.292 4 96.0566 6.6192 95.292 9C94.6352 11.045 95.292 14.5 95.292 14.5" stroke="#FFCEAD" stroke-width="0.5" stroke-dasharray="1 1"/>
<path d="M44 14.5C44 14.5 45.6476 11.2349 47.5 10C49.0413 8.97246 52 8.5 52 8.5" stroke="#FFCEAD" stroke-width="0.5" stroke-dasharray="1 1"/>
<path d="M68 15C68 15 66.3524 11.7349 64.5 10.5C62.9587 9.47246 60 9 60 9" stroke="#FFCEAD" stroke-width="0.5" stroke-dasharray="1 1"/>
</svg>
