<svg width="48" height="12" viewBox="0 0 48 12" fill="none" xmlns="http://www.w3.org/2000/svg">
<path d="M7.64259 6.66424C7.64259 9.24023 6.0488 11.3285 4.08277 11.3285C2.11674 11.3285 0.522949 9.24023 0.522949 6.66424C0.522949 4.08825 2.11674 2 4.08277 2C6.0488 2 7.64259 4.08825 7.64259 6.66424Z" fill="black"/>
<path d="M2.92285 2.5C2.25471 2.34428 1.50153 1.64795 1.42285 1M2.00391 3.5C1.33577 3.34428 0.582586 2.64795 0.503906 2M7.64259 6.66424C7.64259 9.24023 6.0488 11.3285 4.08277 11.3285C2.11674 11.3285 0.522949 9.24023 0.522949 6.66424C0.522949 4.08825 2.11674 2 4.08277 2C6.0488 2 7.64259 4.08825 7.64259 6.66424Z" stroke="black" stroke-width="0.5" stroke-linecap="round"/>
<path d="M40.0234 6.66424C40.0234 9.24023 41.6172 11.3285 43.5832 11.3285C45.5493 11.3285 47.1431 9.24023 47.1431 6.66424C47.1431 4.08825 45.5493 2 43.5832 2C41.6172 2 40.0234 4.08825 40.0234 6.66424Z" fill="black"/>
<path d="M44.7432 2.5C45.4113 2.34428 46.1645 1.64795 46.2432 1M45.6621 3.5C46.3302 3.34428 47.0834 2.64795 47.1621 2M40.0234 6.66424C40.0234 9.24023 41.6172 11.3285 43.5832 11.3285C45.5493 11.3285 47.1431 9.24023 47.1431 6.66424C47.1431 4.08825 45.5493 2 43.5832 2C41.6172 2 40.0234 4.08825 40.0234 6.66424Z" stroke="black" stroke-width="0.5" stroke-linecap="round"/>
</svg>
