<svg width="47" height="10" viewBox="0 0 47 10" fill="none" xmlns="http://www.w3.org/2000/svg">
<path d="M7 5C7 6.65685 5.65685 8 4 8C2.34315 8 1 6.65685 1 5C1 3.34315 2.34315 2 4 2C5.65685 2 7 3.34315 7 5Z" fill="black"/>
<path d="M4 4C4 4.55228 3.55228 5 3 5C2.44772 5 2 4.55228 2 4C2 3.44772 2.44772 3 3 3C3.55228 3 4 3.44772 4 4Z" fill="white"/>
<path d="M47 5C47 6.65685 45.6569 8 44 8C42.3431 8 41 6.65685 41 5C41 3.34315 42.3431 2 44 2C45.6569 2 47 3.34315 47 5Z" fill="black"/>
<path d="M44 4C44 4.55228 43.5523 5 43 5C42.4477 5 42 4.55228 42 4C42 3.44772 42.4477 3 43 3C43.5523 3 44 3.44772 44 4Z" fill="white"/>
</svg>
