<svg width="49" height="10" viewBox="0 0 49 10" fill="none" xmlns="http://www.w3.org/2000/svg">
<path d="M8.5332 4.5C8.5332 6.98528 6.74234 9 4.5332 9C2.32406 9 0.533203 6.98528 0.533203 4.5C0.533203 2.01472 2.32406 0 4.5332 0C6.74234 0 8.5332 2.01472 8.5332 4.5Z" fill="black"/>
<path d="M7.1332 3.5C7.1332 4.88071 6.23777 6 5.1332 6C4.02863 6 3.1332 4.88071 3.1332 3.5C3.1332 2.11929 4.02863 1 5.1332 1C6.23777 1 7.1332 2.11929 7.1332 3.5Z" fill="white"/>
<path d="M3.51904 6.8C3.51904 7.07614 3.29519 7.3 3.01904 7.3C2.7429 7.3 2.51904 7.07614 2.51904 6.8C2.51904 6.52386 2.7429 6.3 3.01904 6.3C3.29519 6.3 3.51904 6.52386 3.51904 6.8Z" fill="white"/>
<path d="M40.0283 4.5C40.0283 6.98528 41.8192 9 44.0283 9C46.2375 9 48.0283 6.98528 48.0283 4.5C48.0283 2.01472 46.2375 0 44.0283 0C41.8192 0 40.0283 2.01472 40.0283 4.5Z" fill="black"/>
<path d="M41.4283 3.5C41.4283 4.88071 42.3238 6 43.4283 6C44.5329 6 45.4283 4.88071 45.4283 3.5C45.4283 2.11929 44.5329 1 43.4283 1C42.3238 1 41.4283 2.11929 41.4283 3.5Z" fill="white"/>
<path d="M45.0425 6.8C45.0425 7.07614 45.2663 7.3 45.5425 7.3C45.8186 7.3 46.0425 7.07614 46.0425 6.8C46.0425 6.52386 45.8186 6.3 45.5425 6.3C45.2663 6.3 45.0425 6.52386 45.0425 6.8Z" fill="white"/>
</svg>
