<svg width="108" height="44" viewBox="0 0 108 44" fill="none" xmlns="http://www.w3.org/2000/svg">
<path d="M51.6634 0H23.9985V14H51.1402L51.6634 0Z" fill="#FFF7ED"/>
<path d="M83.7904 0H56.1255L56.6487 14H83.7904V0Z" fill="#FFF7ED"/>
<path d="M50.0192 43.9996H0.725698C-2.2743 43.9996 7.66502 31.886 23.9986 28.9998L23.9985 14H51.1402L50.0192 43.9996Z" fill="#FFF7ED"/>
<path d="M57.7655 43.9996H107.059C110.059 43.9996 100.12 31.886 83.786 28.9998V14H56.6443L57.7655 43.9996Z" fill="#FFF7ED"/>
<path d="M37.6355 5.88948C37.6355 5.88948 39.3401 4.331 40.3469 5.33989C40.8469 5.84093 40.8469 6.34082 40.3469 6.83989C39.2944 7.89043 37.6355 5.88948 37.6355 5.88948ZM37.6355 5.88948C37.6355 5.88948 36.3438 4.83789 35.3463 5.34082C34.6355 5.69921 34.3545 6.34082 34.8547 6.84082C35.8556 7.84134 37.6355 5.88948 37.6355 5.88948ZM37.6355 5.88948L35.8238 10.4662M37.6355 5.88948L39.3238 10.4662" stroke="#FF7A7A" stroke-width="0.5"/>
<path d="M69.8884 6.2303C69.8884 6.2303 71.5931 4.67182 72.5999 5.68071C73.0999 6.18175 73.0999 6.68164 72.5999 7.18071C71.5474 8.23125 69.8884 6.2303 69.8884 6.2303ZM69.8884 6.2303C69.8884 6.2303 68.5967 5.17871 67.5992 5.68164C66.8885 6.04003 66.6074 6.68164 67.1076 7.18164C68.1085 8.18216 69.8884 6.2303 69.8884 6.2303ZM69.8884 6.2303L68.0767 10.807M69.8884 6.2303L71.5767 10.807" stroke="#FF7A7A" stroke-width="0.5"/>
</svg>
