<svg width="116" height="63" viewBox="0 0 116 63" fill="none" xmlns="http://www.w3.org/2000/svg">
<path d="M6.61587 60.7083C6.61587 60.7083 -0.500438 59.5001 0.499656 52.5001C1.49975 45.5001 8.2587 47.0001 8.2587 47.0001C8.2587 47.0001 3.94141 40.5853 6.61587 36.6056C8.5982 33.6559 12.5969 32.5001 12.5969 32.5001C12.5969 32.5001 12.592 25.0979 16.5 21C19.2888 18.0758 22.4997 15.0001 22.4997 15.0001C22.4997 15.0001 26.7892 7.5809 30.5 5.77684C34.2437 3.95681 38.1726 7.50009 38.1726 7.50009C38.1726 7.50009 41.3316 2.80733 45 2.50009C48.0457 2.24501 51.9997 4.50009 51.9997 4.50009C51.9997 4.50009 57.0007 0.730995 60.3178 0.500053C63.9411 0.247797 65.9997 4.50009 65.9997 4.50009C65.9997 4.50009 76.3098 0.904673 81 4.50009C83.3655 6.31343 84.9997 9.00009 84.9997 9.00009C84.9997 9.00009 91.0456 7.59518 94 11.0001C95.3801 12.5905 98.5183 15.0001 98.5183 15.0001C98.5183 15.0001 102.395 15.9053 104 19.0001C105.259 21.4267 106.5 26.0001 106.5 26.0001C106.5 26.0001 109.41 28.9479 110.5 31.5001C111.576 34.0205 111.5 37.5001 111.5 37.5001C111.5 37.5001 114.232 40.7302 114.02 43.8925C113.918 45.4148 115 47.5001 115 47.5001C115 47.5001 115.234 48.235 115 50.5C114.799 52.4423 115.797 54.7178 115 56.5001C114.31 58.0403 115.5 58 114.02 60.7083C112.54 63.4166 102.991 62.775 101.5 58C100.524 54.8756 104 50 104 50C104 50 98.6962 51.9378 96.5 50C94.1528 47.9289 96 42 96 42C96 42 91.4318 46.6509 88 46C84.3148 45.3011 82 38.5 82 38.5C82 38.5 77.4875 40.7976 74.7121 39.9502C73.0508 39.443 71 37.5001 71 37.5001C71 37.5001 68.0585 39.9296 65.9997 39.5C64.2635 39.1377 62.5 36.6056 62.5 36.6056C62.5 36.6056 59.4271 39.5188 57 39.5C54.184 39.4782 51 35.5 51 35.5C49.5 45 45 41 42 39.9502C42 39.9502 40.2457 43.3391 38.1726 43.8925C35.1584 44.697 31.5 39.5 31.5 39.5C31.5 39.5 31.8601 43.2924 30.5 45C28.9045 47.0032 24.2548 47.0001 24.2548 47.0001C24.2548 47.0001 25.827 51.9733 25 55C23.0187 62.2518 6.61587 60.7083 6.61587 60.7083Z" fill="#512E07"/>
</svg>
