<svg width="151" height="70" viewBox="0 0 151 70" fill="none" xmlns="http://www.w3.org/2000/svg">
<path d="M75.4172 0.819336C100.921 0.81939 111.453 13.7692 126.352 42.2969C148.798 51.8066 152.525 58.598 149.349 63.2754C152.879 56.2725 108.885 49.8151 75.4172 49.5889C41.2687 49.3581 -3.8275 54.6213 1.3742 63.1094C-1.60167 58.4378 2.30195 51.6941 24.4826 42.2969C39.381 13.7693 49.9128 0.819336 75.4172 0.819336Z" fill="#CCEEF9"/>
<path d="M19.6281 27.3713C20.2298 23.6911 25.1048 22.7793 26.996 25.9931L27.0824 26.1399C27.8818 27.4984 29.4467 28.2105 30.9961 27.9206L31.6735 27.7939C35.1314 27.1471 37.3114 31.3956 34.7695 33.8275V33.8275C33.5836 34.9621 33.3433 36.7795 34.1757 38.194V38.194C35.9546 41.217 32.9027 44.8291 29.6631 43.4844L28.6163 43.0499C27.1388 42.4366 25.4385 42.7546 24.2826 43.8605L23.4636 44.644C20.9291 47.0688 16.7779 44.804 17.3439 41.3424V41.3424C17.6087 39.7226 16.7277 38.115 15.2119 37.4857V37.4857C11.9629 36.1371 12.4598 31.3879 15.9177 30.7411L16.5951 30.6144C18.1445 30.3245 19.3463 29.095 19.6006 27.5394L19.6281 27.3713Z" fill="#EE6A6A"/>
<circle cx="25.1624" cy="34.9239" r="2.42658" transform="rotate(-10.5948 25.1624 34.9239)" fill="#AB4B4B"/>
<path d="M41.7109 21.8526C41.718 21.8592 42.2145 22.3497 41.7849 28.477C41.3523 34.6476 37.5521 35.692 34.6785 33.7659C31.9079 31.9084 31.427 28.3996 36.0417 25.3336C40.6564 22.2676 41.7109 21.8526 41.7109 21.8526ZM39.4911 25.8368C39.2805 25.7186 39.0205 25.769 38.8683 25.9448L38.8103 26.0272L35.6242 31.697C35.4889 31.9377 35.5748 32.2428 35.8155 32.378C36.0562 32.5132 36.361 32.4283 36.4963 32.1877L39.6824 26.5178L39.7231 26.4247C39.794 26.2033 39.7017 25.9551 39.4911 25.8368Z" fill="#4FA174"/>
<path d="M24.4335 50.35C24.428 50.3355 24.2019 49.6633 27.1854 44.3238C30.2028 38.9235 34.0869 39.5961 35.8676 42.5623C37.5843 45.4222 36.5257 48.8015 31.0451 49.6123C25.5645 50.4232 24.4335 50.35 24.4335 50.35ZM28.1376 47.6891C28.2779 47.8859 28.5347 47.9507 28.7473 47.8564L28.8348 47.8065L34.1313 44.0307C34.3558 43.8705 34.4079 43.5591 34.2481 43.3344C34.0879 43.1095 33.7759 43.0568 33.551 43.217L28.2543 46.9914L28.1779 47.0584C28.0196 47.2286 27.9975 47.4924 28.1376 47.6891Z" fill="#4FA174"/>
<path d="M39.3023 31.1906C40.7482 27.7533 45.7012 28.0071 46.7881 31.5743L46.8378 31.7372C47.2972 33.245 48.6522 34.3033 50.2264 34.384L50.9146 34.4193C54.4279 34.5993 55.5536 39.2399 52.5133 41.0096V41.0096C51.0949 41.8353 50.4361 43.5461 50.9145 45.1161V45.1161C51.9369 48.4713 48.1247 51.2694 45.2896 49.2041L44.3735 48.5368C43.0805 47.5949 41.3529 47.5063 39.9703 48.3111L38.9908 48.8813C35.9594 50.646 32.4532 47.4729 33.8133 44.2398V44.2398C34.4496 42.7269 33.9692 40.9577 32.6426 39.9914V39.9914C29.7992 37.9201 31.3933 33.4189 34.9065 33.599L35.5948 33.6342C37.169 33.7149 38.6251 32.8006 39.2362 31.3476L39.3023 31.1906Z" fill="#FFE96C"/>
<circle cx="42.9154" cy="39.8286" r="2.42658" transform="rotate(2.93351 42.9154 39.8286)" fill="#FFB500"/>
<path d="M54.1362 24.7127C55.5821 21.2754 60.5352 21.5292 61.6221 25.0964L61.6717 25.2593C62.1312 26.7671 63.4862 27.8254 65.0604 27.9061L65.7486 27.9414C69.2618 28.1214 70.3876 32.762 67.3473 34.5317V34.5317C65.9289 35.3574 65.2701 37.0682 65.7485 38.6382V38.6382C66.7709 41.9934 62.9587 44.7914 60.1236 42.7262L59.2075 42.0589C57.9144 41.117 56.1869 41.0284 54.8043 41.8332L53.8248 42.4034C50.7934 44.168 47.2872 40.995 48.6472 37.7618V37.7618C49.2836 36.249 48.8031 34.4798 47.4765 33.5135V33.5135C44.6331 31.4422 46.2273 26.941 49.7405 27.1211L50.4288 27.1563C52.003 27.237 53.459 26.3227 54.0702 24.8697L54.1362 24.7127Z" fill="#B982FF"/>
<circle cx="57.7504" cy="33.3506" r="2.42658" transform="rotate(2.93351 57.7504 33.3506)" fill="#9747FF"/>
</svg>
