<svg width="150" height="97" viewBox="0 0 150 97" fill="none" xmlns="http://www.w3.org/2000/svg">
<path d="M35.4548 25.6759C39.9693 48.2481 46.7418 59.2843 46.7418 59.2843H61.5393C61.5393 59.2843 58.5297 22.917 55.0184 12.8851C51.5071 2.8532 41.8867 -2.29987 36.9603 3.85607C32.9462 8.87197 34.47 20.7523 35.4548 25.6759Z" fill="#FFE182"/>
<path d="M41.2153 36.3968C44.2118 51.6003 48.7069 59.0338 48.7069 59.0338H58.5288C58.5288 59.0338 56.5311 34.5386 54.2005 27.7816C51.8699 21.0246 44.4852 13.0024 41.2153 17.1487C38.5509 20.5271 40.5617 33.0805 41.2153 36.3968Z" fill="#EBAD96"/>
<path d="M115.211 25.3268C110.697 47.899 103.924 58.9352 103.924 58.9352H89.1267C89.1267 58.9352 92.1363 22.5679 95.6476 12.536C99.1589 2.50408 108.779 -2.64899 113.706 3.50695C117.72 8.52285 116.196 20.4032 115.211 25.3268Z" fill="#FFE182"/>
<path d="M109.451 36.0475C106.454 51.251 101.959 58.6844 101.959 58.6844H92.1373C92.1373 58.6844 94.1349 34.1892 96.4655 27.4322C98.7961 20.6752 106.181 12.653 109.451 16.7993C112.115 20.1778 110.104 32.7312 109.451 36.0475Z" fill="#EBAD96"/>
<path d="M74.9162 33.8193C100.42 33.8194 110.952 46.7692 125.851 75.2969C148.297 84.8066 152.024 91.598 148.848 96.2754C152.378 89.2725 108.384 82.8151 74.9162 82.5889C40.7677 82.3581 -4.32847 87.6213 0.873228 96.1094C-2.10264 91.4378 1.80097 84.6941 23.9816 75.2969C38.88 46.7693 49.4119 33.8193 74.9162 33.8193Z" fill="#FFE182"/>
<path d="M74.7505 33.8183C73.6141 33.8183 72.5074 33.844 71.4287 33.8957C72.461 29.2765 76.8838 28.1458 78.6259 33.9246C77.3731 33.8536 76.0822 33.8183 74.7505 33.8183Z" fill="#B58101"/>
</svg>
