<svg width="150" height="67" viewBox="0 0 150 67" fill="none" xmlns="http://www.w3.org/2000/svg">
<path d="M74.9162 3.81934C100.42 3.81939 110.952 16.7692 125.851 45.2969C148.297 54.8066 152.024 61.598 148.848 66.2754C152.378 59.2725 108.384 52.8151 74.9162 52.5889C40.7677 52.3581 -4.32847 57.6213 0.873228 66.1094C-2.10264 61.4378 1.80097 54.6941 23.9816 45.2969C38.8801 16.7693 49.4119 3.81934 74.9162 3.81934Z" fill="#C88E34"/>
<path d="M74.7505 3.81833C73.6141 3.81833 72.5074 3.84405 71.4287 3.8957C72.461 -0.723516 76.8838 -1.85424 78.6259 3.92463C77.3731 3.85364 76.0822 3.81833 74.7505 3.81833Z" fill="#7D5107"/>
</svg>
