<svg width="151" height="67" viewBox="0 0 151 67" fill="none" xmlns="http://www.w3.org/2000/svg">
<path d="M75.5832 3.81934C101.087 3.81939 111.619 16.7692 126.518 45.2969C148.964 54.8066 152.691 61.598 149.515 66.2754C153.045 59.2725 109.051 52.8151 75.5832 52.5889C41.4347 52.3581 -3.66148 57.6213 1.54022 66.1094C-1.43565 61.4378 2.46796 54.6941 24.6486 45.2969C39.547 16.7693 50.0789 3.81934 75.5832 3.81934Z" fill="#E880BA"/>
<path d="M75.4175 3.81833C74.2811 3.81833 73.1744 3.84405 72.0957 3.8957C73.128 -0.723516 77.5508 -1.85424 79.2929 3.92463C78.0401 3.85364 76.7492 3.81833 75.4175 3.81833Z" fill="#9F577F"/>
<mask id="mask0_195_1958" style="mask-type:alpha" maskUnits="userSpaceOnUse" x="0" y="3" width="151" height="64">
<path d="M75.5832 3.81934C101.087 3.81939 111.619 16.7692 126.518 45.2969C148.964 54.8066 152.691 61.598 149.515 66.2754C153.045 59.2725 109.051 52.8151 75.5832 52.5889C41.4347 52.3581 -3.66148 57.6213 1.54022 66.1094C-1.43565 61.4378 2.46796 54.6941 24.6486 45.2969C39.547 16.7693 50.0789 3.81934 75.5832 3.81934Z" fill="#E880BA"/>
</mask>
<g mask="url(#mask0_195_1958)">
<path d="M73.9406 40.3795C54.2366 40.5305 24 45.5 24 45.5V36.3562C24 36.3562 54.1755 30.6763 73.9406 30.5042C95.2942 30.3182 128 36.3562 128 36.3562V45.5C128 45.5 95.2377 40.2163 73.9406 40.3795Z" fill="#FECF37"/>
</g>
<path d="M14.9547 62.3878L30.8524 41.3188L35.3023 40.4975L33.6609 56.535L14.9547 62.3878Z" fill="#FFE182"/>
<path d="M62.1236 53.6818L39.7521 39.6763L35.3022 40.4976L42.5606 54.8924L62.1236 53.6818Z" fill="#FFE182"/>
<path d="M12.5963 34.3704C18.4048 29.5361 31.7986 36.7669 31.7986 36.7669L32.5241 40.6976C32.5241 40.6976 25.1854 49.8267 18.6336 50.1401C14.2876 50.348 12.096 48.5329 10.7311 46.2834C9.02509 43.4716 8.62339 37.677 12.5963 34.3704Z" fill="#FFE182"/>
<path d="M19.9651 45.5167C26.2525 41.324 32.5197 40.698 32.5197 40.698C32.5197 40.698 28.9054 44.8048 25.9142 47.2328C22.923 49.6609 18.9363 50.0839 18.9363 50.0839C16.8989 49.2093 18.0201 46.8137 19.9651 45.5167Z" fill="#B89F4F"/>
<path d="M54.0081 26.6557C46.8565 24.2134 36.9265 35.7492 36.9265 35.7492L37.652 39.6799C37.652 39.6799 47.7662 45.5877 53.9981 43.5416C58.132 42.1843 59.5312 39.7064 60.0031 37.1179C60.593 33.8824 58.8996 28.3261 54.0081 26.6557Z" fill="#FFE182"/>
<path d="M51.1038 39.6983C43.7339 38.0264 37.6562 39.6789 37.6562 39.6789C37.6562 39.6789 42.4984 42.2248 46.1592 43.4251C49.8201 44.6254 53.6951 43.5973 53.6951 43.5973C55.2861 42.053 53.3836 40.2155 51.1038 39.6983Z" fill="#B89F4F"/>
<rect x="30.5576" y="35.1199" width="7.37936" height="7.37936" rx="2" transform="rotate(-10.4576 30.5576 35.1199)" fill="#FECF37"/>
</svg>
