<svg width="151" height="67" viewBox="0 0 151 67" fill="none" xmlns="http://www.w3.org/2000/svg">
<path d="M75.7502 3.81934C101.254 3.81939 111.786 16.7692 126.685 45.2969C149.131 54.8066 152.858 61.598 149.682 66.2754C153.212 59.2725 109.218 52.8151 75.7502 52.5889C41.6017 52.3581 -3.49449 57.6213 1.70721 66.1094C-1.26866 61.4378 2.63495 54.6941 24.8156 45.2969C39.714 16.7693 50.2459 3.81934 75.7502 3.81934Z" fill="#8A8031"/>
<path d="M75.5845 3.81833C74.4481 3.81833 73.3414 3.84405 72.2627 3.8957C73.295 -0.723516 77.7177 -1.85424 79.4599 3.92463C78.2071 3.85364 76.9162 3.81833 75.5845 3.81833Z" fill="#5B481B"/>
</svg>
